<svg xmlns="http://www.w3.org/2000/svg" width="1600" height="900" viewBox="0 0 1600 900">
<defs><linearGradient id="g"><stop stop-color="#f7d574"/><stop offset="1" stop-color="#c89422"/></linearGradient><filter id="s"><feDropShadow dy="8" stdDeviation="10" flood-opacity=".25"/></filter></defs>
<rect width="1600" height="900" fill="#faf8f3"/>
<path d="M0 0H1070Q975 190 1000 450T920 900H0Z" fill="#032c20"/>
<path d="M1040 0Q945 190 970 450T890 900" fill="none" stroke="#e4b94f" stroke-width="12"/>
<g opacity=".16" fill="#89a96e"><path d="M0 0Q175 55 250 230Q125 125 0 105Z"/><path d="M0 0Q120 100 130 270Q60 150 0 115Z"/><path d="M0 65Q145 100 230 285Q120 185 0 165Z"/></g>
<g transform="translate(500 40)" text-anchor="middle"><circle cy="30" r="34" fill="none" stroke="#e4b94f" stroke-width="6"/><path d="M-40 52Q0 15 40 52M-30 58Q0 34 30 58M0 10V42M0 18Q-20 8-24 20M0 20Q20 8 24 20" fill="none" stroke="#e4b94f" stroke-width="5" stroke-linecap="round"/><text y="108" fill="#e4b94f" font-family="Arial" font-size="38" font-weight="700" letter-spacing="10">DIGIYLYFE</text><text y="136" fill="#e4b94f" font-family="Arial" font-size="16" letter-spacing="5">YOUR LIFE, YOUR WAY</text></g>
<g text-anchor="middle"><line x1="290" y1="205" x2="380" y2="205" stroke="#d7a83d" stroke-width="2"/><line x1="620" y1="205" x2="710" y2="205" stroke="#d7a83d" stroke-width="2"/><text x="500" y="218" fill="#e4b94f" font-family="Arial" font-size="32">MARKET Listing</text><text x="500" y="320" fill="#fff" font-family="Georgia" font-size="82">ASTOU BOUTIQUE</text><line x1="280" y1="357" x2="720" y2="357" stroke="#d7a83d" stroke-width="2"/><circle cx="500" cy="357" r="6" fill="#e4b94f"/><text x="500" y="407" fill="#e7bd55" font-family="Arial" font-size="28">Linge maison, peignoirs, tenues légères</text><text x="500" y="447" fill="#fff" font-family="Georgia" font-size="25" font-style="italic">Douceur locale, élégance et accueil chaleureux</text></g>
<g font-family="Arial" text-anchor="middle" fill="#fff">
<g transform="translate(180 505)"><path d="M-35 0h70v10h-70zm4 16h62v10h-62zm4 16h54v10h-54z" fill="#e4b94f"/><text y="86" font-size="20">LINGE DE</text><text y="113" font-size="20">QUALITÉ</text></g>
<path d="M290 500v135M500 500v135M720 500v135" stroke="#8d742e"/>
<g transform="translate(390 505)"><path d="M0 0l-30 20 6 45h48l6-45zM0 0v65" fill="none" stroke="#e4b94f" stroke-width="7"/><text y="86" font-size="20">STYLE &amp;</text><text y="113" font-size="20">CONFORT</text></g>
<g transform="translate(610 505)"><path d="M0 0c-24 0-38 18-38 38 0 30 38 54 38 54s38-24 38-54C38 18 24 0 0 0z" fill="#e4b94f"/><circle cy="37" r="13" fill="#063323"/><text y="118" font-size="20">BIEN SITUÉE</text></g>
<g transform="translate(825 510)"><circle cy="15" r="15" fill="#e4b94f"/><circle cx="-27" cy="28" r="11" fill="#e4b94f"/><circle cx="27" cy="28" r="11" fill="#e4b94f"/><path d="M-45 65q20-25 37-3 8-22 16 0 17-22 37 3v13h-90z" fill="#e4b94f"/><text y="105" font-size="20">ACCUEIL</text><text y="132" font-size="20">CHALEUREUX</text></g></g>
<g filter="url(#s)"><rect x="75" y="675" width="850" height="145" rx="25" fill="#073326" stroke="#e4b94f" stroke-width="3"/><rect x="95" y="693" width="120" height="110" rx="22" fill="#0b4b37" stroke="#b78d27" stroke-width="3"/><path d="M120 725h70v55h-70zm14-15v25m42-25v25m-39 25 14 14 27-30" fill="none" stroke="#f0c858" stroke-width="8"/><text x="570" y="725" fill="#fff" font-family="Arial" font-size="32" text-anchor="middle">Commande directe</text><rect x="250" y="745" width="630" height="55" rx="25" fill="url(#g)"/><text x="565" y="782" fill="#073326" font-family="Arial" font-size="28" font-weight="700" text-anchor="middle">astou-boutique.digiylyfe.com</text></g>
<rect y="848" width="930" height="52" fill="#071c14"/><path d="M0 874l26-26 26 26 26-26 26 26 26-26 26 26 26-26 26 26 26-26 26 26 26-26 26 26 26-26 26 26 26-26 26 26 26-26 26 26 26-26 26 26 26-26 26 26 26-26 26 26 26-26 26 26 26-26 26 26 26-26 26 26 26-26 26 26 26-26 26 26 26-26" fill="none" stroke="#d6a73e" stroke-width="9"/>
<g text-anchor="middle"><path d="M1265 120h70V80l-35-25-35 25zm15 0V90h40v30m35 0V65m0 0q-10-14-20-4m20 4q10-14 20-4" fill="none" stroke="#d6a73e" stroke-width="5"/><line x1="1090" y1="145" x2="1190" y2="145" stroke="#d6a73e" stroke-width="2"/><line x1="1410" y1="145" x2="1510" y2="145" stroke="#d6a73e" stroke-width="2"/><text x="1300" y="195" fill="#073326" font-family="Arial" font-size="32" font-weight="800">SCANNEZ POUR VOIR</text><text x="1300" y="235" fill="#073326" font-family="Arial" font-size="32" font-weight="800">NOTRE BOUTIQUE</text></g>
<rect x="1095" y="255" width="470" height="470" rx="25" fill="#fff" stroke="#d6a73e" stroke-width="3"/><path d="M1177.16,312.16h73.78v10.54h-73.78zM1261.49,312.16h21.08v10.54h-21.08zM1293.11,312.16h31.62v10.54h-31.62zM1356.35,312.16h31.62v10.54h-31.62zM1409.05,312.16h73.78v10.54h-73.78zM1177.16,322.70h10.54v10.54h-10.54zM1240.41,322.70h10.54v10.54h-10.54zM1261.49,322.70h10.54v10.54h-10.54zM1282.57,322.70h10.54v10.54h-10.54zM1303.65,322.70h21.08v10.54h-21.08zM1345.81,322.70h10.54v10.54h-10.54zM1366.89,322.70h10.54v10.54h-10.54zM1409.05,322.70h10.54v10.54h-10.54zM1472.30,322.70h10.54v10.54h-10.54zM1177.16,333.24h10.54v10.54h-10.54zM1198.24,333.24h31.62v10.54h-31.62zM1240.41,333.24h10.54v10.54h-10.54zM1282.57,333.24h10.54v10.54h-10.54zM1303.65,333.24h31.62v10.54h-31.62zM1377.43,333.24h21.08v10.54h-21.08zM1409.05,333.24h10.54v10.54h-10.54zM1430.14,333.24h31.62v10.54h-31.62zM1472.30,333.24h10.54v10.54h-10.54zM1177.16,343.78h10.54v10.54h-10.54zM1198.24,343.78h31.62v10.54h-31.62zM1240.41,343.78h10.54v10.54h-10.54zM1261.49,343.78h10.54v10.54h-10.54zM1282.57,343.78h21.08v10.54h-21.08zM1356.35,343.78h10.54v10.54h-10.54zM1409.05,343.78h10.54v10.54h-10.54zM1430.14,343.78h31.62v10.54h-31.62zM1472.30,343.78h10.54v10.54h-10.54zM1177.16,354.32h10.54v10.54h-10.54zM1198.24,354.32h31.62v10.54h-31.62zM1240.41,354.32h10.54v10.54h-10.54zM1272.03,354.32h21.08v10.54h-21.08zM1303.65,354.32h63.24v10.54h-63.24zM1377.43,354.32h10.54v10.54h-10.54zM1409.05,354.32h10.54v10.54h-10.54zM1430.14,354.32h31.62v10.54h-31.62zM1472.30,354.32h10.54v10.54h-10.54zM1177.16,364.86h10.54v10.54h-10.54zM1240.41,364.86h10.54v10.54h-10.54zM1303.65,364.86h10.54v10.54h-10.54zM1324.73,364.86h10.54v10.54h-10.54zM1366.89,364.86h31.62v10.54h-31.62zM1409.05,364.86h10.54v10.54h-10.54zM1472.30,364.86h10.54v10.54h-10.54zM1177.16,375.41h73.78v10.54h-73.78zM1261.49,375.41h10.54v10.54h-10.54zM1282.57,375.41h10.54v10.54h-10.54zM1303.65,375.41h10.54v10.54h-10.54zM1324.73,375.41h10.54v10.54h-10.54zM1345.81,375.41h10.54v10.54h-10.54zM1366.89,375.41h10.54v10.54h-10.54zM1387.97,375.41h10.54v10.54h-10.54zM1409.05,375.41h73.78v10.54h-73.78zM1261.49,385.95h21.08v10.54h-21.08zM1293.11,385.95h10.54v10.54h-10.54zM1314.19,385.95h52.70v10.54h-52.70zM1177.16,396.49h10.54v10.54h-10.54zM1198.24,396.49h21.08v10.54h-21.08zM1229.86,396.49h31.62v10.54h-31.62zM1272.03,396.49h31.62v10.54h-31.62zM1314.19,396.49h84.32v10.54h-84.32zM1409.05,396.49h10.54v10.54h-10.54zM1440.68,396.49h10.54v10.54h-10.54zM1461.76,396.49h21.08v10.54h-21.08zM1177.16,407.03h42.16v10.54h-42.16zM1229.86,407.03h10.54v10.54h-10.54zM1250.95,407.03h52.70v10.54h-52.70zM1345.81,407.03h52.70v10.54h-52.70zM1409.05,407.03h31.62v10.54h-31.62zM1472.30,407.03h10.54v10.54h-10.54zM1177.16,417.57h21.08v10.54h-21.08zM1208.78,417.57h10.54v10.54h-10.54zM1240.41,417.57h21.08v10.54h-21.08zM1272.03,417.57h10.54v10.54h-10.54zM1293.11,417.57h21.08v10.54h-21.08zM1324.73,417.57h10.54v10.54h-10.54zM1345.81,417.57h21.08v10.54h-21.08zM1398.51,417.57h10.54v10.54h-10.54zM1430.14,417.57h10.54v10.54h-10.54zM1451.22,417.57h21.08v10.54h-21.08zM1177.16,428.11h42.16v10.54h-42.16zM1250.95,428.11h31.62v10.54h-31.62zM1303.65,428.11h52.70v10.54h-52.70zM1366.89,428.11h21.08v10.54h-21.08zM1398.51,428.11h42.16v10.54h-42.16zM1472.30,428.11h10.54v10.54h-10.54zM1177.16,438.65h10.54v10.54h-10.54zM1240.41,438.65h10.54v10.54h-10.54zM1261.49,438.65h10.54v10.54h-10.54zM1282.57,438.65h31.62v10.54h-31.62zM1335.27,438.65h10.54v10.54h-10.54zM1356.35,438.65h10.54v10.54h-10.54zM1387.97,438.65h21.08v10.54h-21.08zM1440.68,438.65h21.08v10.54h-21.08zM1187.70,449.19h10.54v10.54h-10.54zM1219.32,449.19h10.54v10.54h-10.54zM1250.95,449.19h10.54v10.54h-10.54zM1282.57,449.19h10.54v10.54h-10.54zM1303.65,449.19h21.08v10.54h-21.08zM1335.27,449.19h31.62v10.54h-31.62zM1377.43,449.19h10.54v10.54h-10.54zM1409.05,449.19h10.54v10.54h-10.54zM1451.22,449.19h31.62v10.54h-31.62zM1187.70,459.73h31.62v10.54h-31.62zM1229.86,459.73h21.08v10.54h-21.08zM1261.49,459.73h10.54v10.54h-10.54zM1293.11,459.73h10.54v10.54h-10.54zM1324.73,459.73h10.54v10.54h-10.54zM1345.81,459.73h63.24v10.54h-63.24zM1451.22,459.73h31.62v10.54h-31.62zM1187.70,470.27h10.54v10.54h-10.54zM1219.32,470.27h21.08v10.54h-21.08zM1293.11,470.27h31.62v10.54h-31.62zM1345.81,470.27h10.54v10.54h-10.54zM1419.59,470.27h21.08v10.54h-21.08zM1461.76,470.27h10.54v10.54h-10.54zM1177.16,480.81h10.54v10.54h-10.54zM1198.24,480.81h21.08v10.54h-21.08zM1229.86,480.81h21.08v10.54h-21.08zM1272.03,480.81h31.62v10.54h-31.62zM1335.27,480.81h10.54v10.54h-10.54zM1366.89,480.81h42.16v10.54h-42.16zM1430.14,480.81h21.08v10.54h-21.08zM1461.76,480.81h10.54v10.54h-10.54zM1187.70,491.35h10.54v10.54h-10.54zM1219.32,491.35h10.54v10.54h-10.54zM1250.95,491.35h31.62v10.54h-31.62zM1293.11,491.35h31.62v10.54h-31.62zM1335.27,491.35h31.62v10.54h-31.62zM1387.97,491.35h10.54v10.54h-10.54zM1419.59,491.35h10.54v10.54h-10.54zM1440.68,491.35h31.62v10.54h-31.62zM1177.16,501.89h10.54v10.54h-10.54zM1208.78,501.89h42.16v10.54h-42.16zM1272.03,501.89h10.54v10.54h-10.54zM1293.11,501.89h21.08v10.54h-21.08zM1335.27,501.89h21.08v10.54h-21.08zM1366.89,501.89h10.54v10.54h-10.54zM1398.51,501.89h10.54v10.54h-10.54zM1419.59,501.89h10.54v10.54h-10.54zM1451.22,501.89h10.54v10.54h-10.54zM1208.78,512.43h10.54v10.54h-10.54zM1250.95,512.43h21.08v10.54h-21.08zM1282.57,512.43h10.54v10.54h-10.54zM1303.65,512.43h10.54v10.54h-10.54zM1345.81,512.43h31.62v10.54h-31.62zM1409.05,512.43h21.08v10.54h-21.08zM1451.22,512.43h10.54v10.54h-10.54zM1187.70,522.97h31.62v10.54h-31.62zM1229.86,522.97h21.08v10.54h-21.08zM1261.49,522.97h31.62v10.54h-31.62zM1303.65,522.97h21.08v10.54h-21.08zM1345.81,522.97h115.95v10.54h-115.95zM1261.49,533.51h10.54v10.54h-10.54zM1303.65,533.51h31.62v10.54h-31.62zM1345.81,533.51h21.08v10.54h-21.08zM1377.43,533.51h21.08v10.54h-21.08zM1430.14,533.51h52.70v10.54h-52.70zM1177.16,544.05h73.78v10.54h-73.78zM1261.49,544.05h31.62v10.54h-31.62zM1314.19,544.05h10.54v10.54h-10.54zM1356.35,544.05h10.54v10.54h-10.54zM1377.43,544.05h21.08v10.54h-21.08zM1409.05,544.05h10.54v10.54h-10.54zM1430.14,544.05h21.08v10.54h-21.08zM1461.76,544.05h10.54v10.54h-10.54zM1177.16,554.59h10.54v10.54h-10.54zM1240.41,554.59h10.54v10.54h-10.54zM1261.49,554.59h10.54v10.54h-10.54zM1282.57,554.59h10.54v10.54h-10.54zM1303.65,554.59h10.54v10.54h-10.54zM1335.27,554.59h10.54v10.54h-10.54zM1366.89,554.59h10.54v10.54h-10.54zM1387.97,554.59h10.54v10.54h-10.54zM1430.14,554.59h21.08v10.54h-21.08zM1461.76,554.59h21.08v10.54h-21.08zM1177.16,565.14h10.54v10.54h-10.54zM1198.24,565.14h31.62v10.54h-31.62zM1240.41,565.14h10.54v10.54h-10.54zM1272.03,565.14h10.54v10.54h-10.54zM1303.65,565.14h10.54v10.54h-10.54zM1324.73,565.14h21.08v10.54h-21.08zM1356.35,565.14h10.54v10.54h-10.54zM1387.97,565.14h52.70v10.54h-52.70zM1451.22,565.14h10.54v10.54h-10.54zM1177.16,575.68h10.54v10.54h-10.54zM1198.24,575.68h31.62v10.54h-31.62zM1240.41,575.68h10.54v10.54h-10.54zM1261.49,575.68h31.62v10.54h-31.62zM1324.73,575.68h31.62v10.54h-31.62zM1377.43,575.68h31.62v10.54h-31.62zM1430.14,575.68h21.08v10.54h-21.08zM1472.30,575.68h10.54v10.54h-10.54zM1177.16,586.22h10.54v10.54h-10.54zM1198.24,586.22h31.62v10.54h-31.62zM1240.41,586.22h10.54v10.54h-10.54zM1261.49,586.22h31.62v10.54h-31.62zM1314.19,586.22h21.08v10.54h-21.08zM1366.89,586.22h10.54v10.54h-10.54zM1419.59,586.22h10.54v10.54h-10.54zM1451.22,586.22h10.54v10.54h-10.54zM1472.30,586.22h10.54v10.54h-10.54zM1177.16,596.76h10.54v10.54h-10.54zM1240.41,596.76h10.54v10.54h-10.54zM1293.11,596.76h10.54v10.54h-10.54zM1314.19,596.76h31.62v10.54h-31.62zM1366.89,596.76h31.62v10.54h-31.62zM1409.05,596.76h42.16v10.54h-42.16zM1461.76,596.76h10.54v10.54h-10.54zM1177.16,607.30h73.78v10.54h-73.78zM1261.49,607.30h10.54v10.54h-10.54zM1282.57,607.30h10.54v10.54h-10.54zM1303.65,607.30h21.08v10.54h-21.08zM1335.27,607.30h21.08v10.54h-21.08zM1366.89,607.30h63.24v10.54h-63.24zM1461.76,607.30h10.54v10.54h-10.54z" fill="#000" shape-rendering="crispEdges"/>
<g text-anchor="middle"><line x1="1105" y1="775" x2="1235" y2="775" stroke="#d6a73e" stroke-width="2"/><path d="M1300 763l12 12-12 12-12-12z" fill="#d6a73e"/><line x1="1365" y1="775" x2="1500" y2="775" stroke="#d6a73e" stroke-width="2"/><text x="1330" y="835" fill="#073326" font-family="Arial" font-size="34" font-weight="800" letter-spacing="4">DIGIYLYFE.COM</text><text x="1330" y="875" fill="#c28d24" font-family="Arial" font-size="28">0% commission</text></g><circle cx="1140" cy="825" r="27" fill="none" stroke="#d6a73e" stroke-width="5"/><path d="M1113 825h54m-27-27c-12 12-12 42 0 54m0-54c12 12 12 42 0 54" fill="none" stroke="#d6a73e" stroke-width="4"/>
</svg>